<mxfile host="app.diagrams.net" modified="2023-06-02T06:19:01.219Z" agent="Mozilla/5.0 (Windows NT 10.0; Win64; x64) AppleWebKit/537.36 (KHTML, like Gecko) Chrome/113.0.0.0 Safari/537.36" etag="lzd54cXYqUqZDKSlfN6U" version="21.1.9" type="device">
  <diagram name="第 1 页" id="V1W0sLbI2GgZeyCbVdQ1">
    <mxGraphModel dx="1194" dy="682" grid="1" gridSize="10" guides="1" tooltips="1" connect="1" arrows="1" fold="1" page="1" pageScale="1" pageWidth="827" pageHeight="1169" math="0" shadow="0">
      <root>
        <mxCell id="0" />
        <mxCell id="1" parent="0" />
        <mxCell id="WFYV-QFJoavZbaiG5XtV-6" value="TerminalExpression" style="swimlane;fontStyle=1;align=center;verticalAlign=top;childLayout=stackLayout;horizontal=1;startSize=29;horizontalStack=0;resizeParent=1;resizeParentMax=0;resizeLast=0;collapsible=1;marginBottom=0;" parent="1" vertex="1">
          <mxGeometry x="120" y="379" width="170" height="60" as="geometry" />
        </mxCell>
        <mxCell id="WFYV-QFJoavZbaiG5XtV-7" value="+ interpret()" style="text;strokeColor=none;fillColor=none;align=left;verticalAlign=top;spacingLeft=4;spacingRight=4;overflow=hidden;rotatable=0;points=[[0,0.5],[1,0.5]];portConstraint=eastwest;fontStyle=0" parent="WFYV-QFJoavZbaiG5XtV-6" vertex="1">
          <mxGeometry y="29" width="170" height="31" as="geometry" />
        </mxCell>
        <mxCell id="WFYV-QFJoavZbaiG5XtV-9" value="NonterminalExpression" style="swimlane;fontStyle=1;align=center;verticalAlign=top;childLayout=stackLayout;horizontal=1;startSize=29;horizontalStack=0;resizeParent=1;resizeParentMax=0;resizeLast=0;collapsible=1;marginBottom=0;" parent="1" vertex="1">
          <mxGeometry x="340" y="379" width="170" height="60" as="geometry" />
        </mxCell>
        <mxCell id="WFYV-QFJoavZbaiG5XtV-10" value="+ interpret()" style="text;strokeColor=none;fillColor=none;align=left;verticalAlign=top;spacingLeft=4;spacingRight=4;overflow=hidden;rotatable=0;points=[[0,0.5],[1,0.5]];portConstraint=eastwest;fontStyle=0" parent="WFYV-QFJoavZbaiG5XtV-9" vertex="1">
          <mxGeometry y="29" width="170" height="31" as="geometry" />
        </mxCell>
        <mxCell id="WFYV-QFJoavZbaiG5XtV-14" value="" style="endArrow=block;endSize=10;endFill=0;shadow=0;strokeWidth=1;rounded=0;edgeStyle=elbowEdgeStyle;elbow=vertical;dashed=1;dashPattern=8 8;labelBackgroundColor=none;fontColor=default;exitX=0.5;exitY=0;exitDx=0;exitDy=0;entryX=0.5;entryY=1;entryDx=0;entryDy=0;" parent="1" source="WFYV-QFJoavZbaiG5XtV-6" target="WFYV-QFJoavZbaiG5XtV-22" edge="1">
          <mxGeometry width="160" relative="1" as="geometry">
            <mxPoint x="190" y="310" as="sourcePoint" />
            <mxPoint x="322.5" y="244" as="targetPoint" />
          </mxGeometry>
        </mxCell>
        <mxCell id="WFYV-QFJoavZbaiG5XtV-16" style="edgeStyle=orthogonalEdgeStyle;rounded=0;orthogonalLoop=1;jettySize=auto;html=1;endArrow=open;endFill=0;endSize=10;entryX=0;entryY=0.5;entryDx=0;entryDy=0;" parent="1" source="WFYV-QFJoavZbaiG5XtV-17" target="WFYV-QFJoavZbaiG5XtV-22" edge="1">
          <mxGeometry relative="1" as="geometry">
            <mxPoint x="220" y="217" as="targetPoint" />
          </mxGeometry>
        </mxCell>
        <mxCell id="WFYV-QFJoavZbaiG5XtV-17" value="Client" style="html=1;" parent="1" vertex="1">
          <mxGeometry x="40" y="198.38" width="87" height="37.25" as="geometry" />
        </mxCell>
        <mxCell id="WFYV-QFJoavZbaiG5XtV-21" value="" style="endArrow=block;endSize=10;endFill=0;shadow=0;strokeWidth=1;rounded=0;edgeStyle=elbowEdgeStyle;elbow=vertical;dashed=1;dashPattern=8 8;labelBackgroundColor=none;fontColor=default;entryX=0.5;entryY=1;entryDx=0;entryDy=0;" parent="1" source="WFYV-QFJoavZbaiG5XtV-9" target="WFYV-QFJoavZbaiG5XtV-22" edge="1">
          <mxGeometry width="160" relative="1" as="geometry">
            <mxPoint x="205" y="330" as="sourcePoint" />
            <mxPoint x="322.5" y="244" as="targetPoint" />
          </mxGeometry>
        </mxCell>
        <mxCell id="WFYV-QFJoavZbaiG5XtV-22" value="&lt;p style=&quot;margin:0px;margin-top:4px;text-align:center;&quot;&gt;&lt;i&gt;&amp;lt;&amp;lt;Interface&amp;gt;&amp;gt;&lt;br&gt;&lt;b&gt;AbstractExpression&lt;/b&gt;&lt;/i&gt;&lt;/p&gt;&lt;hr size=&quot;1&quot;&gt;&lt;p style=&quot;margin:0px;margin-left:4px;&quot;&gt;&lt;/p&gt;&lt;p style=&quot;margin:0px;margin-left:4px;&quot;&gt;&lt;i&gt;+ interpret()&lt;br&gt;&lt;/i&gt;&lt;/p&gt;" style="verticalAlign=top;align=left;overflow=fill;fontSize=12;fontFamily=Helvetica;html=1;" parent="1" vertex="1">
          <mxGeometry x="240" y="184.01" width="145" height="65.99" as="geometry" />
        </mxCell>
        <mxCell id="NPx4a5Mk-g4NtmI8U1vI-4" value="" style="endArrow=open;html=1;endSize=12;startArrow=diamondThin;startSize=14;startFill=0;edgeStyle=orthogonalEdgeStyle;align=left;verticalAlign=bottom;rounded=0;exitX=0.994;exitY=0.014;exitDx=0;exitDy=0;exitPerimeter=0;" parent="1" source="WFYV-QFJoavZbaiG5XtV-10" target="WFYV-QFJoavZbaiG5XtV-22" edge="1">
          <mxGeometry x="-0.9358" y="9" relative="1" as="geometry">
            <mxPoint x="290" y="370" as="sourcePoint" />
            <mxPoint x="440" y="232" as="targetPoint" />
            <Array as="points">
              <mxPoint x="530" y="408" />
              <mxPoint x="530" y="220" />
            </Array>
            <mxPoint as="offset" />
          </mxGeometry>
        </mxCell>
      </root>
    </mxGraphModel>
  </diagram>
</mxfile>
